<?xml version="1.0" encoding="UTF-8"?>
<svg xmlns="http://www.w3.org/2000/svg" xmlns:xlink="http://www.w3.org/1999/xlink" width="720.29pt" height="686.26pt" viewBox="0 0 720.29 686.26" version="1.1">
<defs>
<clipPath id="clip1">
  <path d="M 0 0 L 720.289063 0 L 720.289063 686.261719 L 0 686.261719 Z M 0 0 "/>
</clipPath>
</defs>
<g id="surface1">
<g clip-path="url(#clip1)" clip-rule="nonzero">
<path style=" stroke:none;fill-rule:evenodd;fill:rgb(0%,0%,0%);fill-opacity:1;" d="M 452.847656 250.492188 L 358.722656 0.144531 L 267.324219 251.5 L 0.144531 263.65625 L 210.953125 428.257813 L 139.953125 686.117188 L 361.636719 536.488281 L 584.9375 683.695313 L 511.136719 426.625 L 720.144531 259.742188 Z M 438.042969 257.960938 L 368.003906 355.546875 L 366.589844 67.921875 Z M 342.273438 391.402344 L 173.21875 626.960938 L 227.6875 429.132813 Z M 383.199219 377.925781 L 658.644531 287.230469 L 498.898438 414.78125 Z M 271.472656 267.492188 L 342.6875 365.019531 L 65.886719 276.847656 Z M 368.222656 399.996094 L 538.132813 632.695313 L 368.816406 521.078125 Z M 368.222656 399.996094 "/>
</g>
</g>
</svg>
